
<global>
ampeg_attack=0.005
ampeg_release=5.00
</global>

<group>
group_label=RR1
seq_length=2
seq_position=1

<region>
hivel=127
key=A#2
lovel=0
offset=9393
sample=Harp_harmonics_RR1_A#2.opus
</region>

<region>
hivel=127
key=A#3
lovel=0
offset=11932
sample=Harp_harmonics_RR1_A#3.opus
</region>

<region>
hivel=127
key=A#4
lovel=0
offset=11788
sample=Harp_harmonics_RR1_A#4.opus
</region>

<region>
hivel=127
key=A2
lovel=0
offset=9614
sample=Harp_harmonics_RR1_A2.opus
</region>

<region>
hivel=127
key=A3
lovel=0
offset=7743
sample=Harp_harmonics_RR1_A3.opus
</region>

<region>
hivel=127
key=A4
lovel=0
offset=11248
sample=Harp_harmonics_RR1_A4.opus
</region>

<region>
hivel=127
key=B2
lovel=0
offset=8561
sample=Harp_harmonics_RR1_B2.opus
</region>

<region>
hivel=127
key=B3
lovel=0
offset=8118
sample=Harp_harmonics_RR1_B3.opus
</region>

<region>
hivel=127
key=B4
lovel=0
offset=13997
sample=Harp_harmonics_RR1_B4.opus
</region>

<region>
hivel=127
key=C#3
lovel=0
offset=9520
sample=Harp_harmonics_RR1_C#3.opus
</region>

<region>
hivel=127
key=C#4
lovel=0
offset=8185
sample=Harp_harmonics_RR1_C#4.opus
</region>

<region>
hivel=127
key=C#5
lovel=0
offset=8487
sample=Harp_harmonics_RR1_C#5.opus
</region>

<region>
hivel=127
key=C3
lovel=0
offset=9745
sample=Harp_harmonics_RR1_C3.opus
</region>

<region>
hivel=127
key=C4
lovel=0
offset=10518
sample=Harp_harmonics_RR1_C4.opus
</region>

<region>
hivel=127
key=C5
lovel=0
offset=8265
sample=Harp_harmonics_RR1_C5.opus
</region>

<region>
hivel=127
key=D#3
lovel=0
offset=8393
sample=Harp_harmonics_RR1_D#3.opus
</region>

<region>
hivel=127
key=D#4
lovel=0
offset=9534
sample=Harp_harmonics_RR1_D#4.opus
</region>

<region>
hivel=127
key=D3
lovel=0
offset=5304
sample=Harp_harmonics_RR1_D3.opus
</region>

<region>
hivel=127
key=D4
lovel=0
offset=10542
sample=Harp_harmonics_RR1_D4.opus
</region>

<region>
hikey=c6
hivel=127
lokey=d5
lovel=0
offset=10340
pitch_keycenter=d5
sample=Harp_harmonics_RR1_D5.opus
</region>

<region>
hivel=127
key=E3
lovel=0
offset=10338
sample=Harp_harmonics_RR1_E3.opus
</region>

<region>
hivel=127
key=E4
lovel=0
offset=11884
sample=Harp_harmonics_RR1_E4.opus
</region>

<region>
hivel=127
key=F#3
lovel=0
offset=8615
sample=Harp_harmonics_RR1_F#3.opus
</region>

<region>
hivel=127
key=F#4
lovel=0
offset=12128
sample=Harp_harmonics_RR1_F#4.opus
</region>

<region>
hivel=127
key=F3
lovel=0
offset=10529
sample=Harp_harmonics_RR1_F3.opus
</region>

<region>
hivel=127
key=F4
lovel=0
offset=7676
sample=Harp_harmonics_RR1_F4.opus
</region>

<region>
hivel=127
key=G#2
lovel=0
sample=Harp_harmonics_RR1_G#2.opus
</region>

<region>
hivel=127
key=G#3
lovel=0
offset=7661
sample=Harp_harmonics_RR1_G#3.opus
</region>

<region>
hivel=127
key=G#4
lovel=0
offset=9257
sample=Harp_harmonics_RR1_G#4.opus
</region>

<region>
hivel=127
key=G3
lovel=0
offset=10085
sample=Harp_harmonics_RR1_G3.opus
</region>

<region>
hivel=127
key=G4
lovel=0
offset=11057
sample=Harp_harmonics_RR1_G4.opus
</region>
</group>

<group>
group_label=RR2
seq_length=2
seq_position=2

<region>
hivel=127
key=A#2
lovel=0
offset=14010
sample=Harp_harmonics_RR2_A#2.opus
</region>

<region>
hivel=127
key=A#3
lovel=0
offset=11419
sample=Harp_harmonics_RR2_A#3.opus
</region>

<region>
hivel=127
key=A#4
lovel=0
offset=7991
sample=Harp_harmonics_RR2_A#4.opus
</region>

<region>
hivel=127
key=A2
lovel=0
offset=9447
sample=Harp_harmonics_RR2_A2.opus
</region>

<region>
hivel=127
key=A3
lovel=0
offset=11301
sample=Harp_harmonics_RR2_A3.opus
</region>

<region>
hivel=127
key=A4
lovel=0
offset=10679
sample=Harp_harmonics_RR2_A4.opus
</region>

<region>
hivel=127
key=B2
lovel=0
offset=15081
sample=Harp_harmonics_RR2_B2.opus
</region>

<region>
hivel=127
key=B3
lovel=0
offset=8523
sample=Harp_harmonics_RR2_B3.opus
</region>

<region>
hivel=127
key=B4
lovel=0
offset=13933
sample=Harp_harmonics_RR2_B4.opus
</region>

<region>
hivel=127
key=C#3
lovel=0
offset=8868
sample=Harp_harmonics_RR2_C#3.opus
</region>

<region>
hivel=127
key=C#4
lovel=0
offset=6237
sample=Harp_harmonics_RR2_C#4.opus
</region>

<region>
hivel=127
key=C#5
lovel=0
offset=10460
sample=Harp_harmonics_RR2_C#5.opus
</region>

<region>
hivel=127
key=C3
lovel=0
offset=10378
sample=Harp_harmonics_RR2_C3.opus
</region>

<region>
hivel=127
key=C4
lovel=0
offset=9314
sample=Harp_harmonics_RR2_C4.opus
</region>

<region>
hivel=127
key=C5
lovel=0
offset=12982
sample=Harp_harmonics_RR2_C5.opus
</region>

<region>
hivel=127
key=D#3
lovel=0
offset=8492
sample=Harp_harmonics_RR2_D#3.opus
</region>

<region>
hivel=127
key=D#4
lovel=0
offset=5587
sample=Harp_harmonics_RR2_D#4.opus
</region>

<region>
hivel=127
key=D3
lovel=0
offset=5887
sample=Harp_harmonics_RR2_D3.opus
</region>

<region>
hivel=127
key=D4
lovel=0
offset=7560
sample=Harp_harmonics_RR2_D4.opus
</region>

<region>
hikey=c6
hivel=127
lokey=d5
lovel=0
offset=10781
pitch_keycenter=d5
sample=Harp_harmonics_RR2_D5.opus
</region>

<region>
hivel=127
key=E3
lovel=0
offset=7667
sample=Harp_harmonics_RR2_E3.opus
</region>

<region>
hivel=127
key=E4
lovel=0
offset=10632
sample=Harp_harmonics_RR2_E4.opus
</region>

<region>
hivel=127
key=F#3
lovel=0
offset=8802
sample=Harp_harmonics_RR2_F#3.opus
</region>

<region>
hivel=127
key=F#4
lovel=0
offset=11994
sample=Harp_harmonics_RR2_F#4.opus
</region>

<region>
hivel=127
key=F3
lovel=0
offset=2631
sample=Harp_harmonics_RR2_F3.opus
</region>

<region>
hivel=127
key=F4
lovel=0
offset=11987
sample=Harp_harmonics_RR2_F4.opus
</region>

<region>
hivel=127
key=G#2
lovel=0
sample=Harp_harmonics_RR2_G#2.opus
</region>

<region>
hivel=127
key=G#3
lovel=0
offset=7661
sample=Harp_harmonics_RR2_G#3.opus
</region>

<region>
hivel=127
key=G#4
lovel=0
offset=15670
sample=Harp_harmonics_RR2_G#4.opus
</region>

<region>
hivel=127
key=G3
lovel=0
offset=9933
sample=Harp_harmonics_RR2_G3.opus
</region>

<region>
hivel=127
key=G4
lovel=0
offset=12206
sample=Harp_harmonics_RR2_G4.opus
</region>
</group>